<svg id="svg" version="1.1" xmlns="http://www.w3.org/2000/svg" style="display: block;" viewBox="0 0 636 352"><path d="M0 0 C209.88 0 419.76 0 636 0 C636 116.16 636 232.32 636 352 C426.12 352 216.24 352 0 352 C0 235.84 0 119.68 0 0 Z " transform="translate(0,0)" style="fill: #FDFEFE;"/><path d="M0 0 C9.08447396 -0.09303993 18.16878169 -0.16393619 27.25362968 -0.20724869 C31.47296967 -0.22804578 35.69198158 -0.25621744 39.91113281 -0.30175781 C43.98955597 -0.34549932 48.0676653 -0.36919622 52.14630508 -0.37950897 C53.69551655 -0.38684995 55.24471254 -0.40118416 56.79378891 -0.42292023 C66.94323596 -0.55955618 74.93415505 0.36049303 83.8125 5.6875 C88.87416142 11.03839921 91.31795829 15.99831804 91.625 23.4375 C91.23948622 32.36683261 87.6212837 39.40002087 81.09765625 45.46484375 C76.05863344 49.15262022 70.08973641 51.65940229 64 53 C64.99 53.17015625 65.98 53.3403125 67 53.515625 C78.82743339 55.64114779 86.7361361 57.93051672 94 68 C98.23553748 74.69488183 97.8187143 82.29628826 97 90 C94.88026024 98.10211642 90.9799459 104.22760103 85 110 C84.47792969 110.54269531 83.95585938 111.08539063 83.41796875 111.64453125 C72.81567522 121.83408342 57.42018625 123.34076457 43.42578125 123.1953125 C41.85101265 123.19106766 41.85101265 123.19106766 40.24443054 123.18673706 C36.93366466 123.1756573 33.62318233 123.15057629 30.3125 123.125 C28.05013415 123.1149544 25.78776401 123.10583134 23.52539062 123.09765625 C18.01683245 123.07575815 12.50843649 123.04240476 7 123 C7.34375 120.6015625 7.34375 120.6015625 8 118 C10.5 116.375 10.5 116.375 13 115 C13.91649926 112.25050221 14.12913925 110.61982208 14.14044189 107.78710938 C14.14615204 106.92907715 14.15186218 106.07104492 14.15774536 105.18701172 C14.15886322 104.24873535 14.15998108 103.31045898 14.16113281 102.34375 C14.16609772 101.3532666 14.17106262 100.3627832 14.17617798 99.34228516 C14.19079935 96.06151642 14.1976005 92.78079598 14.203125 89.5 C14.20887513 87.22460936 14.21463287 84.94921873 14.22039795 82.67382812 C14.23090694 77.90234145 14.23675072 73.13087162 14.24023438 68.359375 C14.24572817 62.23562081 14.26977563 56.11208795 14.29820633 49.98840332 C14.31679571 45.28905579 14.32203627 40.58976206 14.32357025 35.89038086 C14.32660414 33.63206773 14.33465729 31.3737557 14.34775543 29.11547852 C14.36474342 25.96222879 14.36295372 22.80952647 14.35644531 19.65625 C14.3656601 18.71797363 14.37487488 17.77969727 14.3843689 16.81298828 C14.37601517 15.52593994 14.37601517 15.52593994 14.36749268 14.21289062 C14.36895924 13.46736938 14.3704258 12.72184814 14.3719368 11.95373535 C13.89182604 9.43177633 13.00358196 8.56118324 11 7 C8.27513278 6.20837507 8.27513278 6.20837507 5.3125 5.8125 C4.31863281 5.65394531 3.32476563 5.49539062 2.30078125 5.33203125 C1.16189453 5.16767578 1.16189453 5.16767578 0 5 C0 3.35 0 1.7 0 0 Z " transform="translate(13,211)" style="fill: #225532;"/><path d="M0 0 C8.97139072 -0.06974017 17.94268703 -0.12293255 26.91429043 -0.15543652 C31.08089767 -0.17104268 35.24731842 -0.19218772 39.41381836 -0.22631836 C43.44035214 -0.25909322 47.46670738 -0.27689092 51.49336433 -0.28463173 C53.02384308 -0.2901429 54.55431288 -0.30090435 56.08471489 -0.31719017 C67.30095207 -0.43172023 76.74887178 -0.12420292 85.26953125 7.98828125 C89.83651718 13.29753126 91.83439296 19.33149071 91.5078125 26.3203125 C90.00252752 34.26358557 85.75734214 41.50183608 79.43359375 46.53125 C74.61115173 49.4417447 69.32849017 51.23737444 64 53 C65.68416016 53.32871094 65.68416016 53.32871094 67.40234375 53.6640625 C77.68180403 55.79088696 86.39670626 57.89547407 93 66.6875 C97.63433886 74.36312374 97.20981665 85.46249638 95.31640625 94.12890625 C90.91649253 105.79506754 82.03302132 114.04846445 70.8359375 119.2265625 C62.10136384 122.90623396 53.93727638 123.14419974 44.59765625 123.09765625 C43.51995468 123.0962413 42.44225311 123.09482635 41.33189392 123.09336853 C37.90873371 123.08779611 34.48564025 123.07524868 31.0625 123.0625 C28.73372491 123.05748144 26.40494878 123.05291915 24.07617188 123.04882812 C18.38409202 123.03783571 12.69205078 123.02112514 7 123 C7.34375 120.58203125 7.34375 120.58203125 8 118 C8.825 117.566875 9.65 117.13375 10.5 116.6875 C11.325 116.130625 12.15 115.57375 13 115 C14.11671722 109.01225589 14.1378772 103.07927338 14.11352539 97.00390625 C14.11367142 96.03713455 14.11381744 95.07036285 14.1139679 94.07429504 C14.11327558 90.90367325 14.10551527 87.73311144 14.09765625 84.5625 C14.09578965 82.35432975 14.09436689 80.14615909 14.09336853 77.93798828 C14.08956243 72.1446619 14.07974851 66.35136085 14.06866455 60.55804443 C14.05840934 54.63896019 14.05386212 48.71987183 14.04882812 42.80078125 C14.03812445 31.20050974 14.02107105 19.60025698 14 8 C9.21831077 6.36792643 5.00615646 5.51787825 0 5 C0 3.35 0 1.7 0 0 Z " transform="translate(260,211)" style="fill: #225533;"/><path d="M0 0 C1.98 0 3.96 0 6 0 C11.02072569 9.50818065 15.18315396 19.31188006 19.31732178 29.22793579 C21.38024054 34.17220176 23.46032848 39.10924223 25.5390625 44.046875 C26.19408249 45.60357658 26.19408249 45.60357658 26.86233521 47.19172668 C31.674595 58.619089 36.53023721 70.02768254 41.42114258 81.42160034 C42.38472615 83.66901136 43.34585692 85.91747573 44.30444336 88.16702271 C45.65230753 91.3289728 47.00866475 94.48714863 48.3671875 97.64453125 C48.76231537 98.5760199 49.15744324 99.50750854 49.56454468 100.46722412 C53.29287062 109.3433296 53.29287062 109.3433296 59 117 C60.34747084 117.23075082 61.70377565 117.41153063 63.0625 117.5625 C64.361875 117.706875 65.66125 117.85125 67 118 C67 119.98 67 121.96 67 124 C51.82 124 36.64 124 21 124 C21 122.02 21 120.04 21 118 C21.84304688 117.93941406 22.68609375 117.87882812 23.5546875 117.81640625 C24.65039062 117.73261719 25.74609375 117.64882812 26.875 117.5625 C27.96554687 117.48128906 29.05609375 117.40007812 30.1796875 117.31640625 C32.94728971 117.16998297 32.94728971 117.16998297 35 116 C34.571278 108.48368238 31.9157253 102.35174246 28.9375 95.5 C27.308125 91.705 25.67875 87.91 24 84 C7.17 83.67 -9.66 83.34 -27 83 C-27.33 84.65 -27.66 86.3 -28 88 C-28.64631695 89.72485521 -29.33805806 91.43314894 -30.06640625 93.125 C-30.46923828 94.07890625 -30.87207031 95.0328125 -31.28710938 96.015625 C-32.1379742 98.00662263 -32.99214791 99.99620942 -33.84960938 101.984375 C-34.25115234 102.93828125 -34.65269531 103.8921875 -35.06640625 104.875 C-35.43709229 105.73867187 -35.80777832 106.60234375 -36.18969727 107.4921875 C-37.06104965 110.18894305 -37.30022439 112.18558269 -37 115 C-34.31907309 117.68092691 -32.60832637 117.38670257 -28.875 117.625 C-27.77929688 117.69976562 -26.68359375 117.77453125 -25.5546875 117.8515625 C-24.29011719 117.92503906 -24.29011719 117.92503906 -23 118 C-23 119.98 -23 121.96 -23 124 C-36.2 124 -49.4 124 -63 124 C-63 122.02 -63 120.04 -63 118 C-62.33613281 117.9484375 -61.67226562 117.896875 -60.98828125 117.84375 C-60.10527344 117.7303125 -59.22226563 117.616875 -58.3125 117.5 C-57.44238281 117.4071875 -56.57226562 117.314375 -55.67578125 117.21875 C-48.21286776 113.81958356 -45.04807326 102.0821405 -41.8125 95.0625 C-41.51753632 94.42661957 -41.22257263 93.79073914 -40.91867065 93.1355896 C-28.57551406 66.51406342 -17.01785549 39.52533166 -5.50610352 12.53637695 C-5.05843124 11.48713043 -5.05843124 11.48713043 -4.60171509 10.41668701 C-3.8019828 8.54122253 -3.00336641 6.66528231 -2.20483398 4.78930664 C-1.50792819 3.17590265 -0.78597075 1.5719415 0 0 Z " transform="translate(293,14)" style="fill: #225533;"/><path d="M0 0 C1.4540625 0.0309375 1.4540625 0.0309375 2.9375 0.0625 C5.85170735 5.75702638 8.48199562 11.50847129 10.96484375 17.40234375 C11.34636597 18.30193817 11.72788818 19.20153259 12.12097168 20.12838745 C12.94458475 22.07094646 13.76708992 24.01397552 14.58859253 25.95742798 C16.34513696 30.11195372 18.10814306 34.26372648 19.87086487 38.41563416 C20.79741281 40.59803422 21.72370909 42.78054114 22.64976501 44.96315002 C27.41808926 56.20069137 32.20053721 67.43215483 36.99978638 78.65652466 C37.90973555 80.78612032 38.81850646 82.91621985 39.7260437 85.04684448 C41.00065492 88.03899056 42.27916685 91.02944176 43.55859375 94.01953125 C43.92867554 94.89060516 44.29875732 95.76167908 44.68005371 96.65914917 C46.92608397 101.89393884 49.36393936 106.98113224 51.99769592 112.03276062 C52.9375 114.0625 52.9375 114.0625 52.9375 116.0625 C58.3825 117.0525 58.3825 117.0525 63.9375 118.0625 C63.9375 120.0425 63.9375 122.0225 63.9375 124.0625 C48.4275 124.0625 32.9175 124.0625 16.9375 124.0625 C16.9375 122.0825 16.9375 120.1025 16.9375 118.0625 C21.8875 117.7325 26.8375 117.4025 31.9375 117.0625 C31.49809054 109.43360378 28.78972495 103.06479823 25.875 96.0625 C23.4309375 90.1225 23.4309375 90.1225 20.9375 84.0625 C4.1075 83.7325 -12.7225 83.4025 -30.0625 83.0625 C-31.0525 86.0325 -32.0425 89.0025 -33.0625 92.0625 C-34.57711863 95.67553031 -36.11262954 99.27169117 -37.72070312 102.84375 C-39.72448659 107.50927569 -40.4157197 110.98413375 -40.0625 116.0625 C-37.36066945 117.41341528 -34.94441794 117.40108058 -31.9375 117.625 C-30.29394531 117.75068359 -30.29394531 117.75068359 -28.6171875 117.87890625 C-27.77414063 117.93949219 -26.93109375 118.00007813 -26.0625 118.0625 C-26.0625 120.0425 -26.0625 122.0225 -26.0625 124.0625 C-39.5925 124.0625 -53.1225 124.0625 -67.0625 124.0625 C-67.0625 122.0825 -67.0625 120.1025 -67.0625 118.0625 C-66.47082031 118.04832031 -65.87914063 118.03414063 -65.26953125 118.01953125 C-64.08423828 117.94798828 -64.08423828 117.94798828 -62.875 117.875 C-61.70904297 117.82279297 -61.70904297 117.82279297 -60.51953125 117.76953125 C-55.78320753 116.40661457 -53.43295439 112.73224488 -51.12817383 108.56542969 C-50.49707608 107.2103979 -49.8781908 105.84963287 -49.26953125 104.484375 C-48.92606659 103.73754456 -48.58260193 102.99071411 -48.22872925 102.22125244 C-47.09935853 99.75671723 -45.9868338 97.28499067 -44.875 94.8125 C-44.08174882 93.06873154 -43.28787349 91.32524689 -42.4934082 89.58203125 C-39.99522816 84.08496664 -37.52448908 78.57585531 -35.0625 73.0625 C-34.6655896 72.17377197 -34.2686792 71.28504395 -33.85974121 70.36938477 C-24.94358522 50.3803679 -16.21144653 30.31639039 -7.85620117 10.0859375 C-7.36611572 8.90257812 -6.87603027 7.71921875 -6.37109375 6.5 C-5.94626709 5.46746094 -5.52144043 4.43492187 -5.08374023 3.37109375 C-3.62521547 0.07398399 -3.62521547 0.07398399 0 0 Z " transform="translate(189.0625,209.9375)" style="fill: #225533;"/><path d="M0 0 C29.1258088 -2.42249209 29.1258088 -2.42249209 35.05078125 2.5546875 C37.47515752 5.38896005 39.17538452 8.59478191 40.84375 11.91650391 C42.9484405 15.70903532 45.83130579 18.88916392 48.625 22.1875 C49.73562652 23.54478948 50.84376661 24.90411791 51.94921875 26.265625 C52.96606263 27.51048463 53.98298266 28.75528208 55 30 C55.76957031 30.94359375 56.53914063 31.8871875 57.33203125 32.859375 C59.55074803 35.57617106 61.77453961 38.28872482 64 41 C64.51675293 41.63019043 65.03350586 42.26038086 65.56591797 42.90966797 C72.04393143 50.80711491 78.54218618 58.68342922 85.16308594 66.46166992 C88.02959815 69.83444346 90.83946028 73.24767116 93.625 76.6875 C97.2067307 81.08937655 100.92993616 85.33025042 104.76171875 89.515625 C106.58529962 91.53970429 108.3695897 93.58500887 110.13989258 95.65527344 C110.67657059 96.28254333 111.2132486 96.90981323 111.76618958 97.55609131 C112.17334702 98.03258118 112.58050446 98.50907104 113 99 C113.02321339 88.44669817 113.04096088 77.89340246 113.05181217 67.34008026 C113.05702134 62.43927608 113.06408318 57.53848941 113.07543945 52.63769531 C113.08633833 47.90444263 113.09229164 43.17120677 113.09487724 38.4379425 C113.0967189 36.63592769 113.10031513 34.83391375 113.10573006 33.03190613 C113.11303347 30.49976645 113.11398704 27.96769546 113.11352539 25.43554688 C113.1189183 24.32854935 113.1189183 24.32854935 113.12442017 23.19918823 C113.49458757 14.39536561 113.49458757 14.39536561 110 7 C107.10776497 6.53603307 107.10776497 6.53603307 103.875 6.375 C102.23144531 6.26285156 102.23144531 6.26285156 100.5546875 6.1484375 C99.29011719 6.07496094 99.29011719 6.07496094 98 6 C98 4.02 98 2.04 98 0 C110.87 0 123.74 0 137 0 C137 1.98 137 3.96 137 6 C136.15695312 6.02578125 135.31390625 6.0515625 134.4453125 6.078125 C133.34960938 6.13484375 132.25390625 6.1915625 131.125 6.25 C130.03445313 6.29640625 128.94390625 6.3428125 127.8203125 6.390625 C124.9271725 6.67353516 124.9271725 6.67353516 123.84113503 8.73515701 C122.90422413 11.25788644 122.73913099 13.15933524 122.7215271 15.84686279 C122.71036362 16.81998917 122.69920013 17.79311554 122.68769836 18.79573059 C122.68553818 19.85668442 122.68337799 20.91763824 122.68115234 22.01074219 C122.67110672 23.13298691 122.6610611 24.25523163 122.65071106 25.41148376 C122.61980441 29.1232756 122.6028229 32.83499506 122.5859375 36.546875 C122.5672319 39.11949286 122.54765895 41.69210455 122.5272522 44.26470947 C122.48111446 50.34547151 122.44372929 56.42622974 122.41057932 62.50707459 C122.37234569 69.43091435 122.32293881 76.35466028 122.27259517 83.27842093 C122.16930104 97.51887652 122.08003246 111.75939563 122 126 C120.0642765 125.56015741 118.13125659 125.10840458 116.19946289 124.65161133 C115.12273819 124.40131668 114.04601349 124.15102203 112.93666077 123.8931427 C108.70457261 122.60601458 107.23676685 121.09550363 104.4375 117.6875 C103.99680176 117.16551025 103.55610352 116.64352051 103.10205078 116.10571289 C101.70161623 114.42791794 100.34851789 112.71970936 99 111 C98.06147385 109.827904 97.12266978 108.65603048 96.18359375 107.484375 C94.30886671 105.12682284 92.45434221 102.75501482 90.61328125 100.37109375 C84.47840446 92.43091915 77.99099713 84.79359708 71.44384766 77.19360352 C67.64810577 72.77973939 63.94718137 68.29661937 60.27734375 63.77734375 C57.71796028 60.65603733 55.11410084 57.57546576 52.5 54.5 C49.14552873 50.55349519 45.82778171 46.58357928 42.5625 42.5625 C38.43812112 37.48749296 34.18786016 32.52810942 29.89672852 27.59399414 C26.10617526 23.21235051 26.10617526 23.21235051 25 21 C24.97677768 31.92718269 24.95903461 42.85435946 24.94818783 53.78156185 C24.9429806 58.85609245 24.93592233 63.9306061 24.92456055 69.00512695 C24.91365472 73.9069644 24.90770691 78.80878559 24.90512276 83.71063423 C24.90328234 85.57601744 24.89968856 87.4413998 24.89426994 89.30677605 C24.88695726 91.9297156 24.88601334 94.55258892 24.88647461 97.17553711 C24.88287933 97.9379924 24.87928406 98.70044769 24.87557983 99.48600769 C24.85733068 107.30123556 24.85733068 107.30123556 26 115 C28.56893838 116.28446919 30.76576337 116.32977144 33.625 116.5625 C35.12933594 116.68818359 35.12933594 116.68818359 36.6640625 116.81640625 C37.43492187 116.87699219 38.20578125 116.93757813 39 117 C39 118.98 39 120.96 39 123 C26.13 123 13.26 123 0 123 C0 121.02 0 119.04 0 117 C0.75925781 116.95101562 1.51851563 116.90203125 2.30078125 116.8515625 C3.79158203 116.73941406 3.79158203 116.73941406 5.3125 116.625 C6.79169922 116.52058594 6.79169922 116.52058594 8.30078125 116.4140625 C11.21528433 116.16134528 11.21528433 116.16134528 14 114 C15.11279669 108.17882033 15.16825821 102.36343681 15.20874023 96.45043945 C15.21852402 95.5307135 15.2283078 94.61098755 15.23838806 93.66339111 C15.26809193 90.64670217 15.28964495 87.63005621 15.30859375 84.61328125 C15.31845149 83.06150712 15.31845149 83.06150712 15.32850838 81.47838402 C15.36097548 76.01319112 15.38546925 70.54801684 15.4050293 65.08276367 C15.42290613 60.56359795 15.45784634 56.0450487 15.50756836 51.52612305 C15.56765272 46.05738459 15.59848577 40.58922148 15.60820198 35.12016869 C15.61676748 33.03929107 15.63561242 30.95842934 15.6649456 28.87774086 C15.70374601 25.97159673 15.70491115 23.06771739 15.69702148 20.16137695 C15.71702209 19.30360153 15.73702271 18.44582611 15.75762939 17.5620575 C15.73625264 13.14067319 15.73625264 13.14067319 13.70729256 9.34940147 C10.67194371 6.72111576 8.1283697 5.36947135 4.125 5.1875 C3.34382813 5.13980469 2.56265625 5.09210937 1.7578125 5.04296875 C1.17773438 5.02878906 0.59765625 5.01460937 0 5 C0 3.35 0 1.7 0 0 Z " transform="translate(369,15)" style="fill: #235533;"/><path d="M0 0 C31.02 0 62.04 0 94 0 C93.67 2.64 93.34 5.28 93 8 C92.81570448 9.64518202 92.63636076 11.29093672 92.46484375 12.9375 C92.37783203 13.76894531 92.29082031 14.60039062 92.20117188 15.45703125 C92.11416016 16.29621094 92.02714844 17.13539063 91.9375 18 C91.84662109 18.87011719 91.75574219 19.74023438 91.66210938 20.63671875 C91.44068437 22.75773726 91.22023954 24.87885806 91 27 C89.02 27 87.04 27 85 27 C84.67 21.72 84.34 16.44 84 11 C67.08875234 7.64570294 51.26042352 7.77388091 34 8 C34 23.84 34 39.68 34 56 C38.929375 55.855625 43.85875 55.71125 48.9375 55.5625 C51.2422229 55.49784546 51.2422229 55.49784546 53.59350586 55.43188477 C60.44136959 55.22080366 67.20190956 54.90388018 74 54 C74.33 49.71 74.66 45.42 75 41 C76.65 41 78.3 41 80 41 C80 53.87 80 66.74 80 80 C78.02 80 76.04 80 74 80 C73.67 75.71 73.34 71.42 73 67 C65.23741507 63.22989039 57.50228702 63.4494478 49 63.3125 C44.05 63.209375 39.1 63.10625 34 63 C34 79.83 34 96.66 34 114 C40.909375 114.04125 47.81875 114.0825 54.9375 114.125 C57.10046631 114.14320801 59.26343262 114.16141602 61.49194336 114.18017578 C63.23290764 114.18602457 64.97387469 114.19111921 66.71484375 114.1953125 C68.0384491 114.2106604 68.0384491 114.2106604 69.38879395 114.22631836 C75.22006521 114.22793479 80.34720869 113.44763552 86 112 C87.64681249 105.69239743 89.26309887 99.48472993 90 93 C91.98 93 93.96 93 96 93 C95.86070975 96.89609609 95.71242069 100.79179962 95.5625 104.6875 C95.52318359 105.79029297 95.48386719 106.89308594 95.44335938 108.02929688 C95.40146484 109.09599609 95.35957031 110.16269531 95.31640625 111.26171875 C95.27974854 112.24100342 95.24309082 113.22028809 95.20532227 114.22924805 C95.00780667 116.89465177 94.58426967 119.39469788 94 122 C89.82080216 123.16867153 85.77798283 123.13269261 81.46777344 123.11352539 C80.60887512 123.11367142 79.74997681 123.11381744 78.86505127 123.1139679 C76.02980004 123.11327196 73.19461474 123.10549445 70.359375 123.09765625 C68.39211055 123.09579094 66.42484564 123.09436757 64.45758057 123.09336853 C59.28233556 123.08955227 54.10711867 123.07972956 48.93188477 123.06866455 C43.64990621 123.0584313 38.36792311 123.0538668 33.0859375 123.04882812 C22.72394599 123.03810651 12.36197533 123.02104075 2 123 C2 121.02 2 119.04 2 117 C2.68707031 116.95101562 3.37414062 116.90203125 4.08203125 116.8515625 C5.43361328 116.73941406 5.43361328 116.73941406 6.8125 116.625 C8.15248047 116.52058594 8.15248047 116.52058594 9.51953125 116.4140625 C12.24398499 116.13354964 12.24398499 116.13354964 15 114 C16.00063163 111.25869167 16.12546779 108.6870076 16.12698364 105.78747559 C16.13121338 104.53839668 16.13121338 104.53839668 16.13552856 103.26408386 C16.13350433 102.35902603 16.1314801 101.4539682 16.12939453 100.52148438 C16.13114685 99.56172195 16.13289917 98.60195953 16.13470459 97.6131134 C16.13910652 94.43997389 16.13619092 91.26689009 16.1328125 88.09375 C16.13348602 85.88944488 16.13445644 83.68513983 16.13571167 81.48083496 C16.13718639 76.86075127 16.13504129 72.24068691 16.13037109 67.62060547 C16.12467395 61.69547741 16.12795416 55.77039465 16.13394356 49.84526825 C16.13755523 45.29343321 16.13640778 40.74160892 16.13381577 36.18977356 C16.13314818 34.0048675 16.13396907 31.81996047 16.13629532 29.63505554 C16.13883173 26.58284921 16.13496719 23.53071647 16.12939453 20.47851562 C16.13141876 19.57345779 16.13344299 18.66839996 16.13552856 17.73591614 C16.13270874 16.90319687 16.12988892 16.0704776 16.12698364 15.21252441 C16.12660662 14.49134682 16.12622959 13.77016922 16.12584114 13.02713776 C16.0395227 10.64253572 16.0395227 10.64253572 15 7 C10.05 6.67 5.1 6.34 0 6 C0 4.02 0 2.04 0 0 Z " transform="translate(430,211)" style="fill: #235533;"/><path d="M0 0 C9.08452591 -0.04652023 18.16901026 -0.08196864 27.25362968 -0.10362434 C31.47284047 -0.11402257 35.69196922 -0.12810865 39.91113281 -0.15087891 C43.98953167 -0.17274953 48.06785206 -0.18459835 52.14630508 -0.18975449 C53.69547891 -0.19342489 55.24464886 -0.20059163 56.79378891 -0.21146011 C82.15199821 -0.38215133 82.15199821 -0.38215133 90.72265625 7.60546875 C96.03399682 13.51710826 98.58794298 19.08138343 98.5625 27.125 C98.5615332 27.86911133 98.56056641 28.61322266 98.55957031 29.37988281 C98.26561568 38.73408308 94.0568247 46.03408342 88 53 C77.20412258 62.25635835 66.7753845 64.61039739 52.94140625 64.3359375 C47.18656128 63.84543535 47.18656128 63.84543535 45 62 C44.25 59.375 44.25 59.375 44 57 C45.27875 57.04640625 46.5575 57.0928125 47.875 57.140625 C49.58330979 57.17817027 51.29164508 57.21456745 53 57.25 C54.25876953 57.30027344 54.25876953 57.30027344 55.54296875 57.3515625 C60.93807663 57.43520758 64.62090616 56.67714774 69.30859375 53.96386719 C71 53 71 53 74 52 C78.84241345 44.43372898 80.94697861 34.84711526 80 26 C78.42352717 20.82132759 76.00004735 15.68425414 72 12 C61.62628542 6.72371414 52.03535802 6.34712466 40.71875 8.01171875 C39.45998047 8.19565186 38.20121094 8.37958496 36.90429688 8.5690918 C35.46666992 8.78239136 35.46666992 8.78239136 34 9 C34.06115946 22.36058578 34.13822844 35.72097539 34.23571491 49.08134842 C34.28047773 55.28485063 34.31972091 61.48828626 34.34643555 67.69189453 C34.37240938 73.67664884 34.41276998 79.66114774 34.46318626 85.64574432 C34.47989505 87.93109719 34.49138426 90.21649427 34.49761391 92.50189972 C34.50721125 95.69848016 34.53521875 98.89440124 34.56762695 102.09082031 C34.56619186 103.03956528 34.56475677 103.98831024 34.5632782 104.96580505 C34.62000541 109.96262062 34.62000541 109.96262062 36.33097839 114.58123779 C38.93234566 116.79254623 41.34020703 116.61743394 44.6875 116.75 C45.86699219 116.80671875 47.04648437 116.8634375 48.26171875 116.921875 C49.16535156 116.94765625 50.06898437 116.9734375 51 117 C51 118.98 51 120.96 51 123 C34.17 123 17.34 123 0 123 C0 121.02 0 119.04 0 117 C0.81984375 116.95101562 1.6396875 116.90203125 2.484375 116.8515625 C3.56203125 116.77679688 4.6396875 116.70203125 5.75 116.625 C7.35101563 116.52058594 7.35101563 116.52058594 8.984375 116.4140625 C11.88211292 116.01618657 13.67832909 115.76837551 16 114 C17.38819706 109.34101415 17.14776677 104.51467487 17.14526367 99.69921875 C17.14862228 98.77017731 17.1519809 97.84113586 17.15544128 96.88394165 C17.1649264 93.81844744 17.16689299 90.75300796 17.16796875 87.6875 C17.17118237 85.55428037 17.17454652 83.42106096 17.17805481 81.2878418 C17.1840395 76.81916798 17.18589532 72.35051348 17.18530273 67.88183594 C17.185201 62.15521735 17.19886784 56.42872243 17.21607494 50.70213318 C17.2271898 46.29780507 17.22922212 41.89350696 17.22869301 37.48916626 C17.22987334 35.37765068 17.23429806 33.26613434 17.24202538 31.15463257 C17.25181734 28.20326032 17.24895058 25.25215779 17.24291992 22.30078125 C17.25134918 20.99302231 17.25134918 20.99302231 17.25994873 19.65884399 C17.23768002 15.3722917 17.15153058 11.84082509 15 8 C12.16730334 6.58365167 9.52533562 6.6536995 6.375 6.4375 C5.18648437 6.35371094 3.99796875 6.26992188 2.7734375 6.18359375 C1.40058594 6.09271484 1.40058594 6.09271484 0 6 C0 4.02 0 2.04 0 0 Z " transform="translate(15,15)" style="fill: #225432;"/><path d="M0 0 C1.57382446 0.01981934 1.57382446 0.01981934 3.17944336 0.04003906 C14.02523239 0.29201279 22.74524808 1.8258808 32.125 7.4375 C31.98373374 10.50027267 31.83715604 13.56263542 31.6875 16.625 C31.64818359 17.48931641 31.60886719 18.35363281 31.56835938 19.24414062 C31.36152984 23.39664122 31.12396469 27.38287862 30.125 31.4375 C28.145 31.4375 26.165 31.4375 24.125 31.4375 C24.145625 30.42429688 24.16625 29.41109375 24.1875 28.3671875 C24.30761079 20.92012807 24.30761079 20.92012807 21.59375 14.2109375 C19.50935011 12.59800902 17.53460638 11.5001982 15.125 10.4375 C14.46371094 10.10492188 13.80242188 9.77234375 13.12109375 9.4296875 C5.50845599 6.22284579 -4.03960907 5.96994944 -11.88671875 8.3515625 C-18.69474258 11.50625217 -22.19247621 15.24650661 -25.6875 21.875 C-27.89741012 28.39107785 -28.50903479 37.99108444 -25.55078125 44.23046875 C-19.37087223 52.36950977 -9.36148699 53.08623863 0.125 54.4375 C1.83562685 54.66381891 3.54657735 54.88770246 5.2578125 55.109375 C26.10800806 57.860685 26.10800806 57.860685 33.5 65.6875 C39.58494959 73.74314349 41.43160346 81.36624678 40.125 91.4375 C37.28525168 102.73106131 31.08450113 112.37245565 21.46484375 119.05859375 C5.74793715 128.32081083 -13.16761891 130.42548584 -31 126.125 C-34.98583632 124.95159959 -38.04817943 123.35091028 -41.875 121.4375 C-41.545 112.5275 -41.215 103.6175 -40.875 94.4375 C-38.895 94.4375 -36.915 94.4375 -34.875 94.4375 C-34.83761719 95.24574219 -34.80023437 96.05398438 -34.76171875 96.88671875 C-34.69597656 97.95535156 -34.63023437 99.02398437 -34.5625 100.125 C-34.47548828 101.70861328 -34.47548828 101.70861328 -34.38671875 103.32421875 C-33.57083536 108.28802838 -31.62062682 110.78507653 -27.875 114.0625 C-19.34575764 119.70711342 -8.82390174 120.59228324 1.125 119.4375 C9.44187448 117.31905084 15.46686065 113.71073512 20.125 106.4375 C24.25235901 99.45959088 24.32857023 90.76393845 22.57421875 83 C20.50119201 77.81252077 17.04666802 75.88874915 12.16552734 73.55712891 C6.49574862 71.46931734 0.60324652 70.99863003 -5.375 70.375 C-17.6457495 69.05712403 -29.60613978 67.53981038 -37.875 57.4375 C-43.76941398 48.04372589 -44.63481829 37.19105236 -42.2109375 26.51171875 C-38.67722837 16.63269713 -32.01533682 9.37588517 -22.875 4.4375 C-15.19239226 0.92274137 -8.40279674 -0.18668372 0 0 Z " transform="translate(581.875,208.5625)" style="fill: #225532;"/><path d="M0 0 C33.33 0 66.66 0 101 0 C100.67 9.57 100.34 19.14 100 29 C98.02 29 96.04 29 94 29 C93.86722656 27.71222656 93.73445312 26.42445312 93.59765625 25.09765625 C93.41950101 23.41924638 93.24110308 21.74086227 93.0625 20.0625 C92.97548828 19.21236328 92.88847656 18.36222656 92.79882812 17.48632812 C92.71181641 16.67744141 92.62480469 15.86855469 92.53515625 15.03515625 C92.456604 14.2862915 92.37805176 13.53742676 92.29711914 12.76586914 C92.1719262 10.97859987 92.1719262 10.97859987 91 10 C88.6288026 9.7690848 86.2796038 9.59686685 83.90234375 9.46484375 C83.19348526 9.42186661 82.48462677 9.37888947 81.75428772 9.33460999 C79.48226118 9.1978709 77.20991435 9.06761927 74.9375 8.9375 C73.40036525 8.84612902 71.86325542 8.75433766 70.32617188 8.66210938 C66.55105359 8.43652085 62.77563558 8.2167512 59 8 C59.06113103 21.63862165 59.13817919 35.27705067 59.23571491 48.91546345 C59.28049795 55.24791003 59.31973656 61.58029109 59.34643555 67.9128418 C59.37238934 74.02078239 59.4127354 80.12847188 59.46318626 86.23625755 C59.4799087 88.56988598 59.49138936 90.90355789 59.49761391 93.23723793 C59.50719652 96.49867892 59.53518595 99.75946966 59.56762695 103.02075195 C59.56619186 103.99179367 59.56475677 104.96283539 59.5632782 105.96330261 C59.57581635 106.85091278 59.58835449 107.73852295 59.60127258 108.6530304 C59.60588155 109.42457112 59.61049051 110.19611185 59.61523914 110.9910326 C60.10669778 113.55710545 60.93181015 114.44025197 63 116 C66.19245998 116.58092992 66.19245998 116.58092992 69.6875 116.6875 C70.86699219 116.75324219 72.04648437 116.81898438 73.26171875 116.88671875 C74.16535156 116.92410156 75.06898438 116.96148437 76 117 C76 118.98 76 120.96 76 123 C59.17 123 42.34 123 25 123 C25 121.02 25 119.04 25 117 C25.81984375 116.95101562 26.6396875 116.90203125 27.484375 116.8515625 C29.10085938 116.73941406 29.10085938 116.73941406 30.75 116.625 C32.35101562 116.52058594 32.35101562 116.52058594 33.984375 116.4140625 C36.85902337 116.0193569 38.65859016 115.69588096 41 114 C41.93263959 111.18228494 42.12389199 108.6002963 42.12025452 105.64666748 C42.12162918 104.78292511 42.12300385 103.91918274 42.12442017 103.02926636 C42.12082489 102.08987213 42.11722961 101.15047791 42.11352539 100.18261719 C42.11367142 99.18716888 42.11381744 98.19172058 42.1139679 97.16610718 C42.11327132 93.87634094 42.1054908 90.58663135 42.09765625 87.296875 C42.09579117 85.01572704 42.09436769 82.73457868 42.09336853 80.45343018 C42.08955048 74.4496144 42.07972624 68.44582282 42.06866455 62.4420166 C42.05843515 56.3155144 42.05386763 50.18900828 42.04882812 44.0625 C42.03810336 32.04165604 42.02103545 20.02083003 42 8 C38.16643908 8.14019725 34.33321567 8.28818288 30.5 8.4375 C28.88351562 8.49647461 28.88351562 8.49647461 27.234375 8.55664062 C21.43281536 8.78658049 15.74731473 9.16998731 10 10 C8.01636492 16.23428168 6.99681713 22.54189755 6 29 C4.02 29 2.04 29 0 29 C0 19.43 0 9.86 0 0 Z " transform="translate(516,15)" style="fill: #235533;"/><path d="M0 0 C16.83 0 33.66 0 51 0 C51 1.98 51 3.96 51 6 C50.09636719 6.02578125 49.19273437 6.0515625 48.26171875 6.078125 C47.08222656 6.13484375 45.90273437 6.1915625 44.6875 6.25 C42.92986328 6.31960937 42.92986328 6.31960937 41.13671875 6.390625 C37.96933896 6.69083645 37.96933896 6.69083645 36.32887554 8.76125717 C34.85287962 11.24785218 34.61856093 12.56631066 34.60127258 15.42926025 C34.58873444 16.30983093 34.57619629 17.19040161 34.5632782 18.09765625 C34.56471329 19.05575195 34.56614838 20.01384766 34.56762695 21.00097656 C34.5574353 22.01593201 34.54724365 23.03088745 34.53674316 24.07659912 C34.50654932 27.4313301 34.49733728 30.78577584 34.48828125 34.140625 C34.47143934 36.46662347 34.45328977 38.79261282 34.43388367 41.11859131 C34.38632477 47.24073433 34.35655336 53.36284035 34.33044434 59.48510742 C34.30066863 65.73233348 34.25412802 71.97943194 34.20898438 78.2265625 C34.12288416 90.48430834 34.05556865 102.7420804 34 115 C38.97667978 114.90488943 43.95295967 114.79849831 48.92919922 114.68261719 C50.6143573 114.64484916 52.29958185 114.60991651 53.98486328 114.578125 C65.11576832 114.36572848 75.98322471 113.62652251 87 112 C89.52309366 105.37670186 91.63056816 98.96127851 93 92 C94.98 92 96.96 92 99 92 C99.18956939 98.63492861 98.45561368 104.93984119 97.5 111.5 C97.35691406 112.51320313 97.21382813 113.52640625 97.06640625 114.5703125 C96.71584418 117.04761782 96.36027153 119.52409137 96 122 C92.24854634 123.25048455 88.76323916 123.13143947 84.85668945 123.11352539 C83.61245209 123.11374443 83.61245209 123.11374443 82.34307861 123.1139679 C79.59978628 123.11327092 76.85656173 123.10548853 74.11328125 123.09765625 C72.21184832 123.09579131 70.31041491 123.09436776 68.40898132 123.09336853 C63.40305252 123.08954936 58.3971527 123.07972416 53.39123535 123.06866455 C48.28361402 123.05843756 43.175988 123.05386815 38.06835938 123.04882812 C28.04556018 123.03810138 18.0227825 123.02103212 8 123 C8 121.35 8 119.7 8 118 C8.94875 117.5875 9.8975 117.175 10.875 116.75 C14.18056895 114.89888139 14.71680897 114.37899226 16 111 C16.29927181 108.89567512 16.29927181 108.89567512 16.26069641 106.66012573 C16.27132362 105.36884766 16.27132362 105.36884766 16.28216553 104.05148315 C16.27968811 103.11523102 16.27721069 102.17897888 16.2746582 101.21435547 C16.27976913 100.22211975 16.28488007 99.22988403 16.29014587 98.20758057 C16.30404835 94.92738825 16.30308509 91.64740578 16.30078125 88.3671875 C16.3046668 86.09082969 16.30900117 83.8144726 16.31376648 81.53811646 C16.32122936 76.76838835 16.32093615 71.99873427 16.31567383 67.22900391 C16.30986827 61.1040388 16.32683623 54.97937501 16.3500185 48.85445976 C16.36471565 44.1551434 16.36563322 39.45590037 16.36250877 34.75656509 C16.36302365 32.49743171 16.36829244 30.23829439 16.37832069 27.9791832 C16.39059477 24.82820482 16.38394869 21.67782358 16.37231445 18.52685547 C16.37995819 17.58655487 16.38760193 16.64625427 16.39547729 15.67745972 C16.38495583 14.39464111 16.38495583 14.39464111 16.3742218 13.08590698 C16.37438954 12.34076277 16.37455729 11.59561855 16.37473011 10.82789421 C16.13807153 8.58382137 16.13807153 8.58382137 13 7 C9.80193335 6.5396236 9.80193335 6.5396236 6.3125 6.375 C5.13300781 6.30023437 3.95351562 6.22546875 2.73828125 6.1484375 C1.83464844 6.09945313 0.93101563 6.05046875 0 6 C0 4.02 0 2.04 0 0 Z " transform="translate(121,15)" style="fill: #245634;"/><path d="M0 0 C16.83 0 33.66 0 51 0 C51 1.98 51 3.96 51 6 C49.64455078 6.05607422 49.64455078 6.05607422 48.26171875 6.11328125 C47.08222656 6.17902344 45.90273438 6.24476563 44.6875 6.3125 C43.51574219 6.37050781 42.34398437 6.42851562 41.13671875 6.48828125 C37.74118342 7.04222288 37.02420837 7.35693951 35 10 C34.55138843 12.00860188 34.55138843 12.00860188 34.61904907 14.25085449 C34.6105896 15.11730087 34.60213013 15.98374725 34.59341431 16.87644958 C34.60252335 18.29789024 34.60252335 18.29789024 34.61181641 19.74804688 C34.60393097 21.24840233 34.60393097 21.24840233 34.59588623 22.77906799 C34.58265927 26.09245318 34.59143405 29.40535975 34.6015625 32.71875 C34.59954255 35.01656181 34.59663177 37.314373 34.59286499 39.61218262 C34.58843797 44.43080746 34.59488497 49.24926561 34.60888672 54.06787109 C34.62597864 60.25219744 34.6161395 66.43613324 34.59816933 72.62044525 C34.58734178 77.36613928 34.59077313 82.11174034 34.5985527 86.85743713 C34.60055755 89.13806708 34.5980855 91.41870539 34.59111404 93.69932556 C34.58351664 96.88376304 34.59508017 100.06756325 34.61181641 103.25195312 C34.60574371 104.19958023 34.59967102 105.14720734 34.59341431 106.12355042 C34.60610352 107.42321999 34.60610352 107.42321999 34.61904907 108.74914551 C34.62018015 109.50204109 34.62131123 110.25493668 34.62247658 111.03064728 C35.10963585 113.57191592 35.95541941 114.45173684 38 116 C41.19245998 116.58092992 41.19245998 116.58092992 44.6875 116.6875 C45.86699219 116.75324219 47.04648437 116.81898438 48.26171875 116.88671875 C49.16535156 116.92410156 50.06898438 116.96148437 51 117 C51 118.98 51 120.96 51 123 C34.17 123 17.34 123 0 123 C0 121.02 0 119.04 0 117 C0.90363281 116.97421875 1.80726563 116.9484375 2.73828125 116.921875 C3.91777344 116.86515625 5.09726562 116.8084375 6.3125 116.75 C7.48425781 116.70359375 8.65601563 116.6571875 9.86328125 116.609375 C12.95617482 116.27674874 12.95617482 116.27674874 14.67178345 114.5657959 C16.73071928 110.58842556 16.41721006 106.75330754 16.38818359 102.33789062 C16.39344055 101.35862106 16.39869751 100.3793515 16.40411377 99.3704071 C16.4173216 96.13219267 16.40857271 92.89446947 16.3984375 89.65625 C16.400458 87.40710353 16.40336924 85.1579577 16.40713501 82.90881348 C16.41155943 78.19451664 16.40512336 73.4803903 16.39111328 68.76611328 C16.3740215 62.71979451 16.38386203 56.67387522 16.40183067 50.62757111 C16.41266521 45.98306258 16.40922365 41.33864894 16.4014473 36.69413757 C16.39944438 34.4645737 16.40190774 32.23500124 16.40888596 30.00544739 C16.41649482 26.89076884 16.40490369 23.77673951 16.38818359 20.66210938 C16.39425629 19.73835007 16.40032898 18.81459076 16.40658569 17.86283875 C16.36588917 12.96138664 16.36588917 12.96138664 14.67178345 8.4342041 C12.07186335 6.20376207 9.67056523 6.38299268 6.3125 6.25 C5.13300781 6.19328125 3.95351563 6.1365625 2.73828125 6.078125 C1.83464844 6.05234375 0.93101562 6.0265625 0 6 C0 4.02 0 2.04 0 0 Z " transform="translate(370,211)" style="fill: #245634;"/><path d="M0 0 C3.79151583 -0.08829061 7.58276165 -0.14081946 11.375 -0.1875 C12.96634766 -0.22520508 12.96634766 -0.22520508 14.58984375 -0.26367188 C23.80093781 -0.34843654 32.79711181 0.77932384 40 7 C46.83966235 15.57774126 47.89139345 23.14233255 47 34 C44.88086976 43.0869226 41.11377169 49.36126391 33.25 54.375 C23.64271473 59.0150886 11.40787399 57.97949722 1 57 C0 56 0 56 -0.12025452 53.75376892 C-0.11803391 52.76115555 -0.11581329 51.76854218 -0.11352539 50.74584961 C-0.11344986 49.62476303 -0.11337433 48.50367645 -0.11329651 47.34861755 C-0.10813522 46.1288472 -0.10297394 44.90907684 -0.09765625 43.65234375 C-0.0962413 42.41078018 -0.09482635 41.16921661 -0.09336853 39.89002991 C-0.08870591 36.58394509 -0.07971497 33.27792854 -0.06866455 29.97186279 C-0.05844827 26.6003885 -0.05387045 23.22890717 -0.04882812 19.85742188 C-0.03777395 13.23826225 -0.02101736 6.61913507 0 0 Z " transform="translate(45,269)" style="fill: #FDFDFD;"/><path d="M0 0 C31.16981132 0 31.16981132 0 40 7.3125 C45.48165041 12.97230405 46.5384687 19.33335384 46.4375 26.875 C46.42920166 27.67147949 46.42090332 28.46795898 46.41235352 29.28857422 C46.24022275 35.26843388 45.47755796 40.00101044 42 45 C41.525625 45.71542969 41.05125 46.43085938 40.5625 47.16796875 C36.1138971 53.03884133 31.23682624 55.78613064 24 57 C4.53482998 58.26741499 4.53482998 58.26741499 0 56 C0 37.52 0 19.04 0 0 Z " transform="translate(292,269)" style="fill: #FDFEFD;"/><path d="M0 0 C3.87702707 2.8375343 6.11761214 6.31095429 7.1796875 10.93359375 C8.3000912 19.03784716 6.76298261 25.17476123 2.1796875 31.93359375 C-2.88318121 37.73737008 -8.28840333 38.62069215 -15.8203125 39.93359375 C-22.0903125 39.93359375 -28.3603125 39.93359375 -34.8203125 39.93359375 C-34.8203125 25.74359375 -34.8203125 11.55359375 -34.8203125 -3.06640625 C-24.04724326 -5.75967356 -9.74135717 -5.70684658 0 0 Z " transform="translate(79.8203125,222.06640625)" style="fill: #FCFDFC;"/><path d="M0 0 C3.2730574 2.66411649 5.79375981 5.40001961 7.6875 9.1875 C8.50068941 19.34570217 7.75138253 25.9283579 1.5625 33.9375 C-5.9294102 39.80073407 -13.67818927 40.75634873 -22.9375 40.4375 C-26.36125 40.355 -29.785 40.2725 -33.3125 40.1875 C-33.3125 25.9975 -33.3125 11.8075 -33.3125 -2.8125 C-22.30460044 -4.64714993 -10.07267658 -5.51146454 0 0 Z " transform="translate(325.3125,221.8125)" style="fill: #FDFEFD;"/><path d="M0 0 C2.56396846 2.27770887 3.7852662 4.37196769 5.0847168 7.53149414 C5.46488449 8.44576675 5.84505219 9.36003937 6.23674011 10.30201721 C6.63685806 11.28645309 7.03697601 12.27088898 7.44921875 13.28515625 C8.07543877 14.80320107 8.07543877 14.80320107 8.71430969 16.35191345 C9.59442863 18.48973966 10.47090245 20.62906963 11.34399414 22.76977539 C12.68503241 26.05645233 14.03782855 29.33809497 15.39257812 32.61914062 C16.24548722 34.69502686 17.09772395 36.7711895 17.94921875 38.84765625 C18.35540939 39.83411636 18.76160004 40.82057648 19.18009949 41.83692932 C19.5508107 42.74804977 19.92152191 43.65917023 20.3034668 44.59790039 C20.63195114 45.40159561 20.96043549 46.20529083 21.2988739 47.03334045 C22 49 22 49 22 51 C7.81 51 -6.38 51 -21 51 C-17.62485278 40.87455835 -17.62485278 40.87455835 -16.11474609 37.33813477 C-15.7778476 36.54443985 -15.4409491 35.75074493 -15.09384155 34.93299866 C-14.74060822 34.11077316 -14.38737488 33.28854767 -14.0234375 32.44140625 C-13.65272125 31.57104233 -13.282005 30.70067841 -12.90005493 29.80393982 C-11.72832615 27.05537559 -10.55167136 24.30895133 -9.375 21.5625 C-8.57781555 19.69349133 -7.78093772 17.82435185 -6.984375 15.95507812 C-5.53351289 12.55465955 -4.08239859 9.15435408 -2.62646484 5.75610352 C-2.3357309 5.07709488 -2.04499695 4.39808624 -1.74545288 3.69850159 C-1.19759088 2.45020743 -0.60965418 1.21930836 0 0 Z " transform="translate(184,234)" style="fill: #FBFCFB;"/><path d="M0 0 C0.66 0 1.32 0 2 0 C4.69400144 6.45689401 7.38084332 12.91673277 10.06274414 19.37866211 C10.97581296 21.57628628 11.8905146 23.7732328 12.80688477 25.96948242 C14.12426406 29.12762259 15.4357395 32.28815846 16.74609375 35.44921875 C17.36175453 36.91979988 17.36175453 36.91979988 17.98985291 38.42008972 C18.37017166 39.34066666 18.75049042 40.26124359 19.14233398 41.2097168 C19.47764633 42.0157988 19.81295868 42.8218808 20.15843201 43.65238953 C21 46 21 46 22 51 C7.81 51 -6.38 51 -21 51 C-14.10436809 32.61164825 -14.10436809 32.61164825 -11.1328125 25.78125 C-10.80836151 25.02702759 -10.48391052 24.27280518 -10.14962769 23.49572754 C-9.14490919 21.16229368 -8.13509862 18.83110909 -7.125 16.5 C-6.42934266 14.88686742 -5.73402853 13.27358678 -5.0390625 11.66015625 C-3.36330605 7.77172823 -1.68298989 3.88530238 0 0 Z " transform="translate(291,38)" style="fill: #FBFCFB;"/></svg>